<?xml version="1.0" encoding="UTF-8" standalone="no"?>
<!-- Created with Inkscape (http://www.inkscape.org/) -->

<svg
   version="1.1"
   id="svg9"
   xml:space="preserve"
   width="666.66669"
   height="666.66669"
   viewBox="0 0 666.66669 666.66669"
   sodipodi:docname="MundoDigitalLodo.svg"
   inkscape:version="1.1.2 (0a00cf5339, 2022-02-04, custom)"
   xmlns:inkscape="http://www.inkscape.org/namespaces/inkscape"
   xmlns:sodipodi="http://sodipodi.sourceforge.net/DTD/sodipodi-0.dtd"
   xmlns="http://www.w3.org/2000/svg"
   xmlns:svg="http://www.w3.org/2000/svg"><defs
     id="defs13"><clipPath
       clipPathUnits="userSpaceOnUse"
       id="clipPath43"><path
         d="m 1952.82,3912.77 c -51.98,0 -94.13,-42.15 -94.13,-94.14 0,-13.11 2.69,-25.59 7.53,-36.93 l -207.48,-207.47 c -7.28,5.69 -15.15,10.64 -23.5,14.79 v 570.43 c 99.38,5.14 178.43,87.11 178.43,187.77 0,103.98 -84.29,188.28 -188.27,188.28 -103.98,0 -188.27,-84.3 -188.27,-188.28 0,-25.33 5.07,-49.46 14.15,-71.52 l -263.52,-204.96 c -42.69,40.76 -100.48,65.83 -164.16,65.83 -131.366,0 -237.862,-106.49 -237.862,-237.85 0,-131.36 106.496,-237.86 237.862,-237.86 131.36,0 237.85,106.5 237.85,237.86 0,42.46 -11.18,82.29 -30.68,116.8 l 258.93,201.39 c 20.74,-21.59 46.54,-38.19 75.54,-47.97 v -565.97 c -71.52,-4.7 -128.11,-64.03 -128.11,-136.74 0,-75.76 61.42,-137.18 137.18,-137.18 75.78,0 137.2,61.42 137.2,137.18 0,18.28 -3.65,35.69 -10.14,51.63 l 214.28,214.29 c 11.41,-4.92 23.97,-7.66 37.17,-7.66 52,0 94.14,42.15 94.14,94.14 0,51.99 -42.14,94.14 -94.14,94.14 z"
         id="path41" /></clipPath><linearGradient
       x1="0"
       y1="0"
       x2="1"
       y2="0"
       gradientUnits="userSpaceOnUse"
       gradientTransform="matrix(-959.561,215.412,215.412,959.561,1951.21,3854.04)"
       spreadMethod="pad"
       id="linearGradient51"><stop
         style="stop-opacity:1;stop-color:#2ad3f8"
         offset="0"
         id="stop45" /><stop
         style="stop-opacity:1;stop-color:#933cff"
         offset="0.981287"
         id="stop47" /><stop
         style="stop-opacity:1;stop-color:#933cff"
         offset="1"
         id="stop49" /></linearGradient><clipPath
       clipPathUnits="userSpaceOnUse"
       id="clipPath77"><path
         d="m 4045.95,1897.27 c 18.37,-145.73 -31.73,-297.85 -148.28,-404.62 -190.87,-174.85 -487.36,-161.86 -662.21,29.02 -95.97,104.76 -135.22,241.33 -119.66,372.15 -98.81,-190.16 -74.31,-429.66 78.84,-596.85 195.87,-213.82 527.99,-228.37 741.82,-32.5 180.09,164.98 218.8,426.61 109.49,632.8 z M 3859.03,1576.4 c 120.45,110.36 160,276 115.43,422.5 -2.17,2.46 -4.21,4.97 -6.43,7.39 -19.71,21.5 -40.84,40.9 -63.05,58.36 8.22,-95.44 -26.38,-193.52 -102.49,-263.23 -130.11,-119.2 -332.23,-110.35 -451.42,19.78 -65.34,71.31 -91.95,164.22 -81.44,253.27 -14.92,-11.01 -29.43,-22.88 -43.42,-35.68 -12.66,-11.61 -24.59,-23.73 -35.85,-36.24 -42.55,-135.19 -13.94,-288.7 88.68,-400.73 153.14,-167.17 412.82,-178.55 579.99,-25.42 z m -378.69,461.14 c 68.7,-50.03 164.94,-34.9 214.96,33.8 50.02,68.68 34.9,164.92 -33.79,214.95 -11.65,8.48 -24.13,14.94 -37,19.73 26.8,-27.61 30.74,-71.26 7.31,-103.42 -26.19,-35.96 -76.58,-43.88 -112.54,-17.69 -35.97,26.19 -43.89,76.57 -17.7,112.54 0.78,1.05 1.63,2 2.44,3.01 -22.11,-10.66 -42.01,-26.73 -57.47,-47.96 -50.02,-68.69 -34.9,-164.93 33.79,-214.96 z m 279.02,-168.11 c 66.8,61.2 94.57,148.93 82.28,232.28 -13.01,7.82 -26.31,15.01 -39.83,21.62 -9.26,-47.37 -33.13,-92.29 -71.45,-127.38 -95.27,-87.28 -243.25,-80.8 -330.52,14.47 -30.39,33.18 -49.29,72.76 -57.13,113.93 -6.17,-2.98 -12.34,-6 -18.42,-9.24 -15.94,-79.44 4.79,-165.09 63.71,-229.41 98.06,-107.04 264.32,-114.32 371.36,-16.27 z"
         id="path75" /></clipPath><linearGradient
       x1="0"
       y1="0"
       x2="1"
       y2="0"
       gradientUnits="userSpaceOnUse"
       gradientTransform="matrix(-744.169,176.968,176.968,744.169,3916.54,1634.43)"
       spreadMethod="pad"
       id="linearGradient85"><stop
         style="stop-opacity:1;stop-color:#2ad3f8"
         offset="0"
         id="stop79" /><stop
         style="stop-opacity:1;stop-color:#933cff"
         offset="0.981287"
         id="stop81" /><stop
         style="stop-opacity:1;stop-color:#933cff"
         offset="1"
         id="stop83" /></linearGradient><clipPath
       clipPathUnits="userSpaceOnUse"
       id="clipPath111"><path
         d="m 2153.66,1673.7 c -8.1,98.19 -88.2,177.29 -186.5,184.3 -89.6,6.29 -167.9,-45.9 -200.6,-122.31 l -0.2,-0.5 c 0,0 0,-0.09 -0.1,-0.19 l -57.5,-137.2 c -28,-66.81 -83.5,-118.2 -152.2,-141.1 h -0.1 c -48.4,-16.11 -101.9,-4.1 -138.8,31.3 -14.8,14.2 -26.6,25.49 -26.6,25.49 -29.8,28.51 -49.5,65.61 -56.7,105.5 -2.5,13.7 -3.5,27.8 -3,41.91 l 5.9,152.4 2.8,71.4 -0.1,-0.1 c 0,2.1 0.1,4.1 0.1,6.2 0,190.5 -161,343.4 -354.302,330.1 -163.195,-11.3 -295.297,-143.5 -306.598,-306.61 -2,-28.79 -0.301,-56.79 4.699,-83.7 C 712.16,1676.6 847.059,1560 1009.26,1560 c 7.4,0 145.2,-9.9 198.9,-40.4 l 37.1,-21 c 36.1,-20.51 64.2,-52.5 79.8,-90.91 l 46.1,-113.59 0.1,0.1 c 11.8,-47.81 54.9,-83.3 106.4,-83.3 34.97,0 66.05,16.38 86.12,41.77 16.48,20.87 136.58,142.33 136.58,142.33 28.6,28.99 66.8,46.49 107.5,49.29 l 160.4,10.9 c 83.6,6.51 153,64.01 177,141.41 5.9,18.9 9.1,38.99 9.1,59.89 0,5.71 -0.2,11.41 -0.7,17.21 z m -347.62,-304.99 c -33.27,0 -60.25,-26.97 -60.25,-60.26 0,-33.27 26.98,-60.25 60.25,-60.25 33.28,0 60.26,26.98 60.26,60.25 0,33.29 -26.98,60.26 -60.26,60.26 z m -658.42,74.7 c -47.06,0 -85.21,-38.15 -85.21,-85.22 0,-47.06 38.15,-85.21 85.21,-85.21 47.06,0 85.21,38.15 85.21,85.21 0,47.07 -38.15,85.22 -85.21,85.22 z m 383.88,107.08 c 72.34,0 130.97,58.63 130.97,130.97 0,72.34 -58.63,130.98 -130.97,130.98 -72.34,0 -130.98,-58.64 -130.98,-130.98 0,-72.34 58.64,-130.97 130.98,-130.97 z"
         id="path109" /></clipPath><linearGradient
       x1="0"
       y1="0"
       x2="1"
       y2="0"
       gradientUnits="userSpaceOnUse"
       gradientTransform="matrix(1257.5,-407.26,-407.26,-1257.5,766.778,1854.58)"
       spreadMethod="pad"
       id="linearGradient119"><stop
         style="stop-opacity:1;stop-color:#2ad3f8"
         offset="0"
         id="stop113" /><stop
         style="stop-opacity:1;stop-color:#933cff"
         offset="0.981287"
         id="stop115" /><stop
         style="stop-opacity:1;stop-color:#933cff"
         offset="1"
         id="stop117" /></linearGradient><clipPath
       clipPathUnits="userSpaceOnUse"
       id="clipPath145"><path
         d="m 4065.11,3884.87 c 13.98,2.61 27.22,5.49 40.11,8.5 4.13,52.08 0.47,104.29 -10.68,154.88 -6.3,-0.95 -12.58,-1.96 -18.82,-3.27 -31.03,-6.54 -61.31,-17.83 -93.36,-29.77 -16.07,-5.98 -32.67,-12.17 -49.52,-17.78 -43.37,-14.42 -108.62,-31.83 -174.18,-16.52 -23.79,5.55 -46.37,15.29 -66.76,28.39 -38.29,24.59 -68.9,61.02 -85.49,103.8 -14.7,37.85 -17.59,76.17 -20.38,113.24 -1.45,19.04 -2.8,37.03 -5.7,54.31 -5.04,30.16 -15.23,61.05 -31.13,94.44 -15.79,33.14 -32.97,58.86 -52.16,78.33 -66.27,-10.87 -130.33,-34.35 -188.33,-69.6 -5.87,-11.94 -9.74,-23.12 -11.7,-33.99 -10.67,-59.31 33.62,-122.28 67.87,-164.5 4.63,-5.71 9.34,-11.42 14.07,-17.17 43.2,-52.53 92.18,-112.09 103.44,-187.52 11.64,-77.86 -18.95,-146.95 -48.52,-213.76 -22.93,-51.79 -44.57,-100.71 -45.2,-150.03 -0.75,-59.04 30.43,-121.79 85.57,-172.19 11.6,-10.6 23.9,-20.4 36.7,-29.6 31.28,-4.24 62.71,-5.58 93.94,-4.18 15.12,8.77 27.16,18.78 36.44,30.28 27.36,33.87 33.56,83.16 36.18,131.39 0.36,6.66 0.68,13.37 0.99,20.07 2.41,51.23 4.91,104.19 27.5,154.66 26.17,58.44 78.16,105.06 139.09,124.71 45.71,14.75 92.86,14.25 141.18,12.34 l 3.98,-0.16 c 23.74,-0.93 46.67,-1.79 68.57,-0.45 2.1,0.38 4.21,0.76 6.3,1.15 z m 25.35,-79.72 c -1.37,-0.07 -2.75,-0.14 -4.12,-0.21 -6.49,-0.31 -12.71,-0.67 -19.06,-0.99 -2.81,-0.51 -5.59,-1.03 -8.39,-1.53 -46.73,-8.37 -90.87,-16.28 -126.37,-38.17 -47.47,-29.26 -76.97,-86.29 -73.44,-141.93 0.99,-15.49 4.34,-31.66 7.88,-48.78 4.76,-23.11 9.53,-47.03 9.59,-72.85 57.07,38.66 107.44,89.22 147.05,150.89 31.23,48.63 53.28,100.49 66.86,153.57 z m -844.81,15.94 c 25.61,43.21 49.8,84.03 52.55,127.34 2.25,35.67 -10.34,73.68 -22.52,110.44 l -12.61,38.05 c -21.9,50.87 -44.02,101.62 -66.4,152.22 -2.14,4.32 -4.26,8.66 -6.17,13.24 -1.01,2.42 -1.91,4.85 -2.82,7.28 -1.22,2.75 -2.47,5.46 -3.69,8.2 -15.76,-18.34 -30.52,-37.9 -43.96,-58.82 -126.98,-197.73 -104.56,-448.52 38.35,-619.92 -2.54,44.08 3.59,88.56 19.54,129.92 12.75,33.01 30.53,63.03 47.73,92.05 z m 563.27,426.69 c 41.13,-33.33 97.38,-50.61 158.51,-48.87 20.63,0.57 41.89,3.34 63.66,8.18 -40.18,66.53 -95.74,125.16 -165.55,170 -63.83,41 -133.21,66.28 -203.65,77.11 l 60.48,-96.22 c 25.28,-40.21 51.42,-81.78 86.55,-110.2 z"
         id="path143" /></clipPath><linearGradient
       x1="0"
       y1="0"
       x2="1"
       y2="0"
       gradientUnits="userSpaceOnUse"
       gradientTransform="matrix(237.513,-1119.74,-1119.74,-237.513,3473.53,4445.79)"
       spreadMethod="pad"
       id="linearGradient153"><stop
         style="stop-opacity:1;stop-color:#2ad3f8"
         offset="0"
         id="stop147" /><stop
         style="stop-opacity:1;stop-color:#933cff"
         offset="0.981287"
         id="stop149" /><stop
         style="stop-opacity:1;stop-color:#933cff"
         offset="1"
         id="stop151" /></linearGradient></defs><sodipodi:namedview
     id="namedview11"
     pagecolor="#ffffff"
     bordercolor="#666666"
     borderopacity="1.0"
     inkscape:pageshadow="2"
     inkscape:pageopacity="0.0"
     inkscape:pagecheckerboard="0"
     showgrid="false"
     inkscape:zoom="0.94649997"
     inkscape:cx="11.093503"
     inkscape:cy="436.8727"
     inkscape:window-width="2560"
     inkscape:window-height="1560"
     inkscape:window-x="-12"
     inkscape:window-y="-12"
     inkscape:window-maximized="1"
     inkscape:current-layer="g123" /><g
     id="g15"
     inkscape:groupmode="layer"
     inkscape:label="ink_ext_XXXXXX"
     transform="matrix(1.3333333,0,0,-1.3333333,0,666.66667)"><g
       id="g17"
       transform="matrix(0.20491289,0,0,0.20491289,-522.97984,-540.41207)"><g
         id="g123"
         transform="matrix(14.499417,0,0,14.499417,-1406.1604,-1455.0197)"><text
           transform="scale(1,-1)"
           style="font-style:normal;font-variant:normal;font-weight:normal;font-stretch:normal;font-size:18.9339px;font-family:'Bauhaus 93';-inkscape-font-specification:'Bauhaus 93, ';writing-mode:lr-tb;fill:#e3ccff;fill-opacity:1;fill-rule:nonzero;stroke:none"
           id="text127"
           x="298.58011"
           y="-304.63089"><tspan
             sodipodi:role="line"
             id="tspan125"
             x="298.58011"
             y="-304.63089"
             style="font-style:normal;font-variant:normal;font-weight:normal;font-stretch:normal;font-family:'Bauhaus 93';-inkscape-font-specification:'Bauhaus 93, '">Mundo Digital</tspan></text></g><g
         id="g133"
         transform="matrix(14.499417,0,0,14.499417,-1406.1604,-1455.0197)"><text
           transform="scale(1,-1)"
           style="font-variant:normal;font-weight:200;font-size:8.4234px;font-family:Raleway;-inkscape-font-specification:Raleway-ExtraLight;writing-mode:lr-tb;fill:#933cff;fill-opacity:1;fill-rule:nonzero;stroke:none"
           id="text137"
           x="316.18057"
           y="-289.72229"><tspan
             sodipodi:role="line"
             id="tspan135"
             x="316.18057"
             y="-289.72229">Expertos en tecnolgía</tspan></text></g><g
         id="g139"
         transform="matrix(1.4499417,0,0,1.4499417,-1386.8255,-1609.6987)"><g
           id="g141"
           clip-path="url(#clipPath145)"><path
             d="m 4065.11,3884.87 c 13.98,2.61 27.22,5.49 40.11,8.5 4.13,52.08 0.47,104.29 -10.68,154.88 -6.3,-0.95 -12.58,-1.96 -18.82,-3.27 -31.03,-6.54 -61.31,-17.83 -93.36,-29.77 -16.07,-5.98 -32.67,-12.17 -49.52,-17.78 -43.37,-14.42 -108.62,-31.83 -174.18,-16.52 -23.79,5.55 -46.37,15.29 -66.76,28.39 -38.29,24.59 -68.9,61.02 -85.49,103.8 -14.7,37.85 -17.59,76.17 -20.38,113.24 -1.45,19.04 -2.8,37.03 -5.7,54.31 -5.04,30.16 -15.23,61.05 -31.13,94.44 -15.79,33.14 -32.97,58.86 -52.16,78.33 -66.27,-10.87 -130.33,-34.35 -188.33,-69.6 -5.87,-11.94 -9.74,-23.12 -11.7,-33.99 -10.67,-59.31 33.62,-122.28 67.87,-164.5 4.63,-5.71 9.34,-11.42 14.07,-17.17 43.2,-52.53 92.18,-112.09 103.44,-187.52 11.64,-77.86 -18.95,-146.95 -48.52,-213.76 -22.93,-51.79 -44.57,-100.71 -45.2,-150.03 -0.75,-59.04 30.43,-121.79 85.57,-172.19 11.6,-10.6 23.9,-20.4 36.7,-29.6 31.28,-4.24 62.71,-5.58 93.94,-4.18 15.12,8.77 27.16,18.78 36.44,30.28 27.36,33.87 33.56,83.16 36.18,131.39 0.36,6.66 0.68,13.37 0.99,20.07 2.41,51.23 4.91,104.19 27.5,154.66 26.17,58.44 78.16,105.06 139.09,124.71 45.71,14.75 92.86,14.25 141.18,12.34 l 3.98,-0.16 c 23.74,-0.93 46.67,-1.79 68.57,-0.45 2.1,0.38 4.21,0.76 6.3,1.15 z m 25.35,-79.72 c -1.37,-0.07 -2.75,-0.14 -4.12,-0.21 -6.49,-0.31 -12.71,-0.67 -19.06,-0.99 -2.81,-0.51 -5.59,-1.03 -8.39,-1.53 -46.73,-8.37 -90.87,-16.28 -126.37,-38.17 -47.47,-29.26 -76.97,-86.29 -73.44,-141.93 0.99,-15.49 4.34,-31.66 7.88,-48.78 4.76,-23.11 9.53,-47.03 9.59,-72.85 57.07,38.66 107.44,89.22 147.05,150.89 31.23,48.63 53.28,100.49 66.86,153.57 z m -844.81,15.94 c 25.61,43.21 49.8,84.03 52.55,127.34 2.25,35.67 -10.34,73.68 -22.52,110.44 l -12.61,38.05 c -21.9,50.87 -44.02,101.62 -66.4,152.22 -2.14,4.32 -4.26,8.66 -6.17,13.24 -1.01,2.42 -1.91,4.85 -2.82,7.28 -1.22,2.75 -2.47,5.46 -3.69,8.2 -15.76,-18.34 -30.52,-37.9 -43.96,-58.82 -126.98,-197.73 -104.56,-448.52 38.35,-619.92 -2.54,44.08 3.59,88.56 19.54,129.92 12.75,33.01 30.53,63.03 47.73,92.05 z m 563.27,426.69 c 41.13,-33.33 97.38,-50.61 158.51,-48.87 20.63,0.57 41.89,3.34 63.66,8.18 -40.18,66.53 -95.74,125.16 -165.55,170 -63.83,41 -133.21,66.28 -203.65,77.11 l 60.48,-96.22 c 25.28,-40.21 51.42,-81.78 86.55,-110.2"
             style="fill:url(#linearGradient153);fill-opacity:1;fill-rule:nonzero;stroke:none"
             id="path155" /></g></g><path
         d="m 2601.04,345.352 c -4.33,-4.43 -8.04,-9.313 -11.09,-14.532 l -4.65,2.41 c -0.67,2.969 -3.49,5.02 -6.59,4.661 -3.31,-0.391 -5.67,-3.391 -5.29,-6.7 0.39,-3.312 3.39,-5.671 6.7,-5.281 0.65,0.059 1.27,0.25 1.84,0.512 l 4.51,-2.34 c -2.51,-5.543 -4.33,-11.391 -5.39,-17.434 l 7.47,-1.316 c 2.29,13.059 8.49,25.066 17.92,34.727 l -5.43,5.293"
         style="fill:#f9fbfc;fill-opacity:1;fill-rule:nonzero;stroke:none"
         id="path157" /><path
         d="m 2655.91,368.371 c -1.71,0 -3.41,-0.062 -5.09,-0.172 l -0.74,6.262 c 1.88,1.488 2.96,3.891 2.66,6.449 -0.46,3.922 -4.03,6.731 -7.95,6.281 -3.94,-0.461 -6.75,-4.031 -6.28,-7.961 0.3,-2.539 1.89,-4.609 4.04,-5.64 l 0.73,-6.238 c -7.14,-1.161 -14.02,-3.321 -20.59,-6.454 l 3.27,-6.847 c 9.34,4.469 19.41,6.738 29.95,6.738 4.97,0 9.93,-0.527 14.76,-1.578 l 1.6,7.41 c -5.35,1.16 -10.85,1.75 -16.36,1.75"
         style="fill:#f9fbfc;fill-opacity:1;fill-rule:nonzero;stroke:none"
         id="path159" /><path
         d="m 2721.94,342.898 c 3.31,0.403 5.66,3.411 5.25,6.723 -0.4,3.309 -3.41,5.66 -6.72,5.25 -3.09,-0.379 -5.35,-3.039 -5.3,-6.082 l -4.16,-3.637 c -4.18,4.309 -8.9,8.129 -14.07,11.399 l -4.05,-6.422 c 11.35,-7.137 20.21,-17.258 25.64,-29.238 l 6.9,3.121 c -2.51,5.539 -5.67,10.707 -9.42,15.449 l 4.02,3.508 c 0.62,-0.117 1.25,-0.16 1.91,-0.071"
         style="fill:#f9fbfc;fill-opacity:1;fill-rule:nonzero;stroke:none"
         id="path161" /><path
         d="m 2650.44,266.289 c -3.86,-0.238 -7.75,-0.348 -11.57,-0.348 -8.8,0 -17.33,0.598 -24.79,1.789 -3.9,0.622 -8.45,1.551 -12.7,2.918 10.47,-18.609 30.69,-31.25 53.89,-31.25 28.55,0 52.61,19.161 59.49,45.032 -6.82,-4.489 -15.05,-8.25 -24.58,-11.219 -11.8,-3.68 -25.55,-6.07 -39.74,-6.922"
         style="fill:#f9fbfc;fill-opacity:1;fill-rule:nonzero;stroke:none"
         id="path163" /><path
         d="m 2681.69,297.141 c -7.5,0 -13.6,6.101 -13.6,13.601 0,7.5 6.1,13.598 13.6,13.598 7.5,0 13.61,-6.098 13.61,-13.598 0,-7.5 -6.11,-13.601 -13.61,-13.601 z m -47.37,-9.09 c -10.2,0 -18.5,8.308 -18.5,18.5 0,10.211 8.3,18.508 18.5,18.508 10.2,0 18.49,-8.297 18.49,-18.508 0,-10.192 -8.29,-18.5 -18.49,-18.5 z m 21.59,65.16 c -33.52,0 -60.79,-26.672 -60.79,-59.441 0,-4.25 0.46,-8.489 1.37,-12.61 6.73,-4.82 27.06,-8.91 53.47,-7.308 28.8,1.73 52.97,9.578 66.72,21.589 -0.05,1.938 -0.2,3.891 -0.45,5.809 -3.8,29.621 -29.73,51.961 -60.32,51.961"
         style="fill:#f9fbfc;fill-opacity:1;fill-rule:nonzero;stroke:none"
         id="path165" /><path
         d="m 2815.95,334.531 c -2.95,1.16 -8.06,3.09 -13.83,2.367 -5.51,-0.679 -8.44,-3.398 -8.44,-10.058 v -8.66 h 22.29 v -17.168 h -22.29 v -54.551 h -19.31 v 54.551 h -13.4 v 17.168 h 13.4 v 8.89 c 0,16.801 8.95,27.821 25.68,27.821 6.43,0 11.57,-1.211 15.9,-3.082 v -17.278"
         style="fill:#f9fbfc;fill-opacity:1;fill-rule:nonzero;stroke:none"
         id="path167" /><path
         d="m 2862.97,301.219 c -1.77,0.293 -3.57,0.461 -5.25,0.461 -8.96,0 -15.1,-5.481 -15.1,-16.141 v -39.078 h -19.33 v 71.719 h 18.73 v -7.84 c 4.52,6.73 11.4,9.769 20.21,9.769 4.14,0 8.48,-1.269 10.95,-3.367 l -10.21,-15.523"
         style="fill:#f9fbfc;fill-opacity:1;fill-rule:nonzero;stroke:none"
         id="path169" /><path
         d="m 2888.51,289.09 h 31.75 c -1.78,9.18 -7.33,14.359 -15.62,14.359 -9.1,0 -14.43,-5.469 -16.13,-14.359 z m 51.14,-6.66 c 0,-2.219 -0.16,-4.879 -0.37,-6.508 h -50.85 c 2.07,-10.371 9.33,-14.883 18.43,-14.883 6.22,0 12.96,2.52 18.13,6.891 l 11.33,-12.43 c -8.14,-7.48 -18.51,-10.891 -30.57,-10.891 -21.98,0 -37.23,14.95 -37.23,37.532 0,22.57 14.8,37.968 36.27,37.968 20.65,0 34.78,-15.328 34.86,-37.679"
         style="fill:#f9fbfc;fill-opacity:1;fill-rule:nonzero;stroke:none"
         id="path171" /><path
         d="m 2965.04,289.09 h 31.75 c -1.78,9.18 -7.33,14.359 -15.62,14.359 -9.1,0 -14.43,-5.469 -16.13,-14.359 z m 51.14,-6.66 c 0,-2.219 -0.15,-4.879 -0.37,-6.508 h -50.85 c 2.07,-10.371 9.33,-14.883 18.43,-14.883 6.22,0 12.95,2.52 18.14,6.891 l 11.32,-12.43 c -8.14,-7.48 -18.5,-10.891 -30.57,-10.891 -21.98,0 -37.23,14.95 -37.23,37.532 0,22.57 14.81,37.968 36.27,37.968 20.65,0 34.79,-15.328 34.86,-37.679"
         style="fill:#f9fbfc;fill-opacity:1;fill-rule:nonzero;stroke:none"
         id="path173" /><path
         d="m 3042.86,282.359 c 0,-11.328 7.48,-19.757 18.44,-19.757 11.4,0 18.5,8.8 18.5,19.757 0,10.95 -7.1,19.762 -18.5,19.762 -10.96,0 -18.44,-8.441 -18.44,-19.762 z m 56.78,0 c 0,-21.539 -14.95,-37.75 -34.72,-37.75 -9.62,0 -16.43,3.782 -21.09,9.321 v -37.078 h -19.25 V 318.18 h 18.88 v -7.918 c 4.67,5.847 11.54,9.847 21.4,9.847 19.83,0 34.78,-16.218 34.78,-37.75"
         style="fill:#f9fbfc;fill-opacity:1;fill-rule:nonzero;stroke:none"
         id="path175" /><path
         d="m 3128.08,246.461 h -19.32 v 71.719 h 19.32 z m 2.6,95.187 c 0,-6.957 -5.41,-12.296 -12.37,-12.296 -6.95,0 -12.28,5.339 -12.28,12.296 0,6.954 5.33,12.434 12.28,12.434 6.96,0 12.37,-5.48 12.37,-12.434"
         style="fill:#f9fbfc;fill-opacity:1;fill-rule:nonzero;stroke:none"
         id="path177" /><path
         d="m 3160.31,292.641 27.03,25.539 h 23.68 l -34.79,-33.75 35.01,-37.969 h -23.76 l -27.17,29.019 V 246.461 H 3141 v 106.578 h 19.31 v -60.398"
         style="fill:#f9fbfc;fill-opacity:1;fill-rule:nonzero;stroke:none"
         id="path179" /><path
         d="m 1844.12,266.301 v 32.078 c -3.95,6.152 -12.45,11.422 -21.24,11.422 -14.21,0 -22.7,-11.719 -22.7,-27.391 0,-15.668 8.49,-27.25 22.7,-27.25 8.79,0 17.29,4.981 21.24,11.141 z m 0,-19.192 v 10.543 c -5.28,-7.172 -13.91,-12.3 -23.87,-12.3 -18.46,0 -31.5,14.058 -31.5,37.058 0,22.559 12.89,37.211 31.5,37.211 9.52,0 18.16,-4.691 23.87,-12.449 v 37.637 h 10.99 v -97.7 h -10.99"
         style="fill:#f9fbfc;fill-opacity:1;fill-rule:nonzero;stroke:none"
         id="path181" /><path
         d="m 1904.03,310.531 c -15.09,0 -22.56,-12.742 -23.14,-23.582 h 46.43 c -0.15,10.551 -7.18,23.582 -23.29,23.582 z m -34.72,-27.972 c 0,20.5 14.65,37.062 34.87,37.062 21.38,0 33.98,-16.699 33.98,-37.941 v -2.789 h -57.27 c 0.87,-13.332 10.25,-24.461 25.48,-24.461 8.06,0 16.26,3.222 21.83,8.941 l 5.27,-7.18 c -7.03,-7.031 -16.55,-10.839 -28.12,-10.839 -20.95,0 -36.04,15.089 -36.04,37.207"
         style="fill:#f9fbfc;fill-opacity:1;fill-rule:nonzero;stroke:none"
         id="path183" /><path
         d="m 1946.07,256.48 5.71,7.911 c 4.69,-5.422 13.62,-10.11 23.29,-10.11 10.84,0 16.7,5.129 16.7,12.16 0,17.141 -43.8,6.59 -43.8,32.821 0,10.976 9.52,20.359 26.36,20.359 12.02,0 20.52,-4.539 26.23,-10.262 l -5.13,-7.609 c -4.25,5.121 -12.01,8.93 -21.1,8.93 -9.66,0 -15.67,-4.828 -15.67,-11.129 0,-15.531 43.8,-5.27 43.8,-32.809 0,-11.871 -9.52,-21.39 -27.83,-21.39 -11.57,0 -21.39,3.519 -28.56,11.128"
         style="fill:#f9fbfc;fill-opacity:1;fill-rule:nonzero;stroke:none"
         id="path185" /><path
         d="m 2016.67,247.109 v 70.75 h 10.98 v -70.75 z m -1.9,88.18 c 0,4.102 3.37,7.473 7.32,7.473 4.1,0 7.47,-3.371 7.47,-7.473 0,-4.098 -3.37,-7.32 -7.47,-7.32 -3.95,0 -7.32,3.222 -7.32,7.32"
         style="fill:#f9fbfc;fill-opacity:1;fill-rule:nonzero;stroke:none"
         id="path187" /><path
         d="m 2097.08,267.469 v 30.91 c -3.81,6.152 -12.3,11.422 -21.09,11.422 -14.21,0 -22.7,-11.281 -22.7,-26.949 0,-15.532 8.49,-26.954 22.7,-26.954 8.79,0 17.28,5.422 21.09,11.571 z m -51.26,-38.528 5.56,8.207 c 5.86,-7.027 12.89,-9.668 23,-9.668 11.72,0 22.7,5.711 22.7,21.239 v 10.121 c -5.12,-7.192 -13.77,-12.61 -23.73,-12.61 -18.46,0 -31.49,13.77 -31.49,36.622 0,22.699 12.89,36.769 31.49,36.769 9.52,0 18.02,-4.691 23.73,-12.449 v 10.687 h 10.99 V 249.16 c 0,-23.441 -16.41,-30.762 -33.69,-30.762 -12.01,0 -20.22,2.352 -28.56,10.543"
         style="fill:#f9fbfc;fill-opacity:1;fill-rule:nonzero;stroke:none"
         id="path189" /><path
         d="m 2174.13,247.109 v 46.289 c 0,12.454 -6.3,16.403 -15.82,16.403 -8.64,0 -16.85,-5.27 -20.94,-10.981 v -51.711 h -11 v 70.75 h 11 v -10.25 c 4.97,5.852 14.64,12.012 25.19,12.012 14.79,0 22.55,-7.473 22.55,-22.851 v -49.661 h -10.98"
         style="fill:#f9fbfc;fill-opacity:1;fill-rule:nonzero;stroke:none"
         id="path191" /><path
         d="m 2234.04,310.531 c -15.09,0 -22.56,-12.742 -23.14,-23.582 h 46.43 c -0.15,10.551 -7.18,23.582 -23.29,23.582 z m -34.72,-27.972 c 0,20.5 14.65,37.062 34.86,37.062 21.39,0 33.99,-16.699 33.99,-37.941 v -2.789 h -57.27 c 0.87,-13.332 10.24,-24.461 25.48,-24.461 8.06,0 16.26,3.222 21.83,8.941 l 5.27,-7.18 c -7.03,-7.031 -16.55,-10.839 -28.13,-10.839 -20.94,0 -36.03,15.089 -36.03,37.207"
         style="fill:#f9fbfc;fill-opacity:1;fill-rule:nonzero;stroke:none"
         id="path193" /><path
         d="m 2333.5,266.301 v 32.078 c -3.96,6.152 -12.45,11.422 -21.24,11.422 -14.21,0 -22.71,-11.719 -22.71,-27.391 0,-15.668 8.5,-27.25 22.71,-27.25 8.79,0 17.28,4.981 21.24,11.141 z m 0,-19.192 v 10.543 c -5.28,-7.172 -13.92,-12.3 -23.88,-12.3 -18.46,0 -31.49,14.058 -31.49,37.058 0,22.559 12.88,37.211 31.49,37.211 9.52,0 18.17,-4.691 23.88,-12.449 v 37.637 h 10.98 v -97.7 h -10.98"
         style="fill:#f9fbfc;fill-opacity:1;fill-rule:nonzero;stroke:none"
         id="path195" /><path
         d="m 2428.99,255.16 c 14.36,0 22.86,11.582 22.86,27.25 0,15.672 -8.5,27.391 -22.86,27.391 -8.64,0 -17.28,-5.27 -21.09,-11.422 v -32.078 c 3.81,-6.16 12.45,-11.141 21.09,-11.141 z m -32.07,-8.051 v 97.7 h 10.98 v -37.637 c 5.72,7.758 14.21,12.449 23.88,12.449 18.45,0 31.49,-14.652 31.49,-37.211 0,-23 -13.04,-37.058 -31.49,-37.058 -9.96,0 -18.6,5.128 -23.88,12.3 v -10.543 h -10.98"
         style="fill:#f9fbfc;fill-opacity:1;fill-rule:nonzero;stroke:none"
         id="path197" /><path
         d="m 2475.28,229.379 c 1.61,-0.731 4.25,-1.168 6.01,-1.168 4.83,0 8.05,1.609 10.54,7.469 l 4.69,10.691 -29.59,71.488 h 11.87 l 23.58,-58.007 23.44,58.007 h 12 l -35.44,-85.109 c -4.25,-10.238 -11.43,-14.211 -20.8,-14.352 -2.34,0 -6.01,0.442 -8.06,1.032 l 1.76,9.949"
         style="fill:#f9fbfc;fill-opacity:1;fill-rule:nonzero;stroke:none"
         id="path199" /></g></g></svg>
